# xmcd
#
# Track frame offsets: 
#        150
#        17416
#        37676
#        54636
#        75269
#        91918
#        112348
#        136750
#        151575
#        170220
#        179527
#        198680
#
# Disc length: 3103 seconds
#
# Revision: 0
# Processed by: cddbd v1.5.2PL0 Copyright (c) Steve Scherf et al.
# Submitted via: ExactAudioCopy v1.1
#
DISCID=900c1d0c
DTITLE=Muddy Waters - King Bee
DYEAR=1980
DGENRE=Blues
TTITLE0=I'm A King Bee
TTITLE1=Too Young To Know
TTITLE2=Mean Old Frisco Blues
TTITLE3=Forever Lonely
TTITLE4=I Feel Like Going Home
TTITLE5=Champagne and Reefer
TTITLE6=Sad Sad Day
TTITLE7=(My Eyes) Keep Me In Trouble
TTITLE8=Deep Down In Florida #2
TTITLE9=No Escape From The Blues
TTITLE10=I Won't Go On (1980)
TTITLE11=Clouds In My Heart
EXTD=
EXTT0=
EXTT1=
EXTT2=
EXTT3=
EXTT4=
EXTT5=
EXTT6=
EXTT7=
EXTT8=
EXTT9=
EXTT10=
EXTT11=
PLAYORDER=
